<?xml version="1.0" encoding="iso-8859-1"?>
<!-- Uploaded to: SVG Repo, www.svgrepo.com, Generator: SVG Repo Mixer Tools -->
<svg fill="#000000" height="800px" width="800px" version="1.1" id="Layer_1" xmlns="http://www.w3.org/2000/svg" xmlns:xlink="http://www.w3.org/1999/xlink" 
	 viewBox="0 0 507.973 507.973" xml:space="preserve">
<g>
	<g>
		<path d="M506.587,438.887l-44.5-93.6v-282.3c0-7.8-6.3-14.1-14.1-14.1h-388c-7.8,0-14.1,6.3-14.1,14.1v282.3l-44.5,93.6
			c-2.1,4.4-1.8,9.5,0.8,13.6c2.6,4.1,7.1,6.6,11.9,6.6h479.8c4.8,0,9.3-2.5,11.9-6.6
			C508.387,448.387,508.687,443.287,506.587,438.887z M74.087,77.087h359.8v257.2h-359.8V77.087z M36.387,430.887l32.5-68.3h370.2
			l32.5,68.3H36.387z"/>
	</g>
</g>
<g>
	<g>
		<path d="M291.687,382.587h-75.5c-7.8,0-14.1,6.3-14.1,14.1c0,7.8,6.3,14.1,14.1,14.1h75.5c7.8,0,14.1-6.3,14.1-14.1
			C305.887,388.887,299.487,382.587,291.687,382.587z"/>
	</g>
</g>
<g>
	<g>
		<path d="M395.687,178.887l-101.3-37.1c-5.2-1.9-10.9-0.6-14.8,3.3c-3.9,3.9-5.2,9.7-3.3,14.8l37.1,101.3
			c3.7,8.6,10.2,9.3,13.3,9.3c5.6,0,10.6-3.3,12.9-8.4l11.5-25.7l14.1,14.1c5.8,5.8,15.6,4.4,20,0c5.5-5.5,5.5-14.4,0-20l-14.1-14.1
			l25.7-11.5c5.2-2.3,8.6-7.6,8.4-13.4C404.687,185.887,401.087,180.887,395.687,178.887z M340.587,199.087c-3.2,1.4-5.7,4-7.1,7.1
			l-5.6,12.6l-14.7-40.1l40.1,14.7L340.587,199.087z"/>
	</g>
</g>
<g>
	<g>
		<path d="M190.887,96.187c-27.4,0-49.6,22.3-49.6,49.6s22.2,49.6,49.6,49.6c27.4,0,49.6-22.3,49.6-49.6
			S218.187,96.187,190.887,96.187z M190.887,167.087c-11.8,0-21.4-9.6-21.4-21.4s9.6-21.4,21.4-21.4s21.4,9.6,21.4,21.4
			S202.687,167.087,190.887,167.087z"/>
	</g>
</g>
<g>
	<g>
		<path d="M190.887,208.887c-50.6,0-91.7,41.1-91.7,91.7c0,0.3-0.7,14.8,14.1,14.8h155.1c13.8,0,14.1-14.5,14.1-14.8
			C282.587,250.087,241.487,208.887,190.887,208.887z M128.887,287.187c6.2-28.6,31.7-50,62.1-50s55.9,21.5,62,50H128.887z"/>
	</g>
</g>
</svg>